# 3ds Max Wavefront OBJ Exporter v0.97b - (c)2007 guruware
# File Created: 01.02.2019 15:05:25

#
# object Text006
#

v  -0.2199 -0.4599 0.2210
v  -0.2343 -0.4030 0.2210
v  -0.4809 -0.4780 0.2210
v  -0.4687 -0.5212 0.2210
v  -0.4535 -0.5614 0.2210
v  -0.4353 -0.5987 0.2210
v  0.4158 0.5544 0.2210
v  0.4158 0.7566 0.2210
v  -0.4000 0.7566 0.2210
v  -0.1938 0.5544 0.2210
v  -0.4306 -0.1074 0.2210
v  -0.2066 0.2444 0.2210
v  -0.2076 0.2210 0.2210
v  -0.2088 0.1984 0.2210
v  -0.2103 0.1767 0.2210
v  -0.2120 0.1559 0.2210
v  -0.2139 0.1360 0.2210
v  -0.2161 0.1170 0.2210
v  -0.2185 0.0988 0.2210
v  -0.2205 -0.1380 0.2210
v  -0.2030 -0.0920 0.2210
v  -0.1809 -0.0532 0.2210
v  -0.1543 -0.0214 0.2210
v  -0.1232 0.0033 0.2210
v  -0.1911 0.1340 0.2210
v  -0.0875 0.0210 0.2210
v  -0.1603 0.1637 0.2210
v  -0.1260 0.1881 0.2210
v  -0.0472 0.0316 0.2210
v  -0.0882 0.2070 0.2210
v  -0.0470 0.2206 0.2210
v  -0.0025 0.0351 0.2210
v  -0.0023 0.2287 0.2210
v  0.0252 0.0336 0.2210
v  0.0459 0.2314 0.2210
v  0.0511 0.0293 0.2210
v  0.1031 0.2282 0.2210
v  0.0753 0.0220 0.2210
v  0.1568 0.2187 0.2210
v  0.0979 0.0119 0.2210
v  0.2072 0.2028 0.2210
v  0.1187 -0.0012 0.2210
v  0.2541 0.1805 0.2210
v  0.1379 -0.0171 0.2210
v  0.2976 0.1518 0.2210
v  0.1554 -0.0360 0.2210
v  0.3377 0.1168 0.2210
v  0.1732 -0.0610 0.2210
v  0.3743 0.0754 0.2210
v  0.1882 -0.0892 0.2210
v  0.4026 0.0345 0.2210
v  0.4265 -0.0095 0.2210
v  0.2005 -0.1206 0.2210
v  0.4461 -0.0564 0.2210
v  0.2101 -0.1551 0.2210
v  0.4613 -0.1063 0.2210
v  0.2170 -0.1928 0.2210
v  0.4722 -0.1592 0.2210
v  0.2211 -0.2338 0.2210
v  0.4787 -0.2151 0.2210
v  0.2224 -0.2779 0.2210
v  0.4809 -0.2739 0.2210
v  0.2213 -0.3192 0.2210
v  0.4777 -0.3459 0.2210
v  0.2179 -0.3582 0.2210
v  0.4683 -0.4134 0.2210
v  0.2121 -0.3946 0.2210
v  0.4525 -0.4765 0.2210
v  0.2041 -0.4286 0.2210
v  0.4303 -0.5351 0.2210
v  0.1938 -0.4601 0.2210
v  0.4019 -0.5893 0.2210
v  0.1811 -0.4892 0.2210
v  0.3671 -0.6391 0.2210
v  0.1662 -0.5158 0.2210
v  0.3260 -0.6845 0.2210
v  0.1471 -0.5428 0.2210
v  0.2863 -0.7188 0.2210
v  0.1257 -0.5656 0.2210
v  0.2436 -0.7478 0.2210
v  0.1021 -0.5843 0.2210
v  0.1982 -0.7716 0.2210
v  0.0763 -0.5988 0.2210
v  0.1498 -0.7900 0.2210
v  0.0483 -0.6092 0.2210
v  0.0986 -0.8032 0.2210
v  0.0181 -0.6154 0.2210
v  0.0446 -0.8112 0.2210
v  -0.0143 -0.6175 0.2210
v  -0.0123 -0.8138 0.2210
v  -0.0674 -0.8119 0.2210
v  -0.0628 -0.6131 0.2210
v  -0.1194 -0.8061 0.2210
v  -0.1055 -0.6000 0.2210
v  -0.1683 -0.7964 0.2210
v  -0.2141 -0.7828 0.2210
v  -0.1426 -0.5781 0.2210
v  -0.2568 -0.7654 0.2210
v  -0.2964 -0.7441 0.2210
v  -0.1741 -0.5475 0.2210
v  -0.3329 -0.7190 0.2210
v  -0.3630 -0.6933 0.2210
v  -0.3901 -0.6647 0.2210
v  -0.1998 -0.5081 0.2210
v  -0.4142 -0.6331 0.2210
v  -0.4809 -0.4780 -0.0000
v  -0.2343 -0.4030 -0.0000
v  -0.2199 -0.4599 -0.0000
v  -0.4687 -0.5212 -0.0000
v  -0.4535 -0.5614 -0.0000
v  -0.4353 -0.5987 -0.0000
v  -0.4000 0.7566 -0.0000
v  0.4158 0.7566 -0.0000
v  0.4158 0.5544 -0.0000
v  -0.1938 0.5544 -0.0000
v  -0.4306 -0.1074 -0.0000
v  -0.2066 0.2444 -0.0000
v  -0.2076 0.2210 -0.0000
v  -0.2088 0.1984 -0.0000
v  -0.2103 0.1767 -0.0000
v  -0.2120 0.1559 -0.0000
v  -0.2139 0.1360 -0.0000
v  -0.2161 0.1170 -0.0000
v  -0.2185 0.0988 -0.0000
v  -0.2205 -0.1380 -0.0000
v  -0.2030 -0.0920 -0.0000
v  -0.1809 -0.0532 -0.0000
v  -0.1543 -0.0214 -0.0000
v  -0.1232 0.0033 -0.0000
v  -0.1911 0.1340 -0.0000
v  -0.0875 0.0210 -0.0000
v  -0.1603 0.1637 -0.0000
v  -0.1260 0.1881 -0.0000
v  -0.0472 0.0316 -0.0000
v  -0.0882 0.2070 -0.0000
v  -0.0470 0.2206 -0.0000
v  -0.0025 0.0351 -0.0000
v  -0.0023 0.2287 -0.0000
v  0.0252 0.0336 -0.0000
v  0.0459 0.2314 -0.0000
v  0.0511 0.0293 -0.0000
v  0.1031 0.2282 -0.0000
v  0.0753 0.0220 -0.0000
v  0.1568 0.2187 -0.0000
v  0.0979 0.0119 -0.0000
v  0.2072 0.2028 -0.0000
v  0.1187 -0.0012 -0.0000
v  0.2541 0.1805 -0.0000
v  0.1379 -0.0171 -0.0000
v  0.2976 0.1518 -0.0000
v  0.1554 -0.0360 -0.0000
v  0.3377 0.1168 -0.0000
v  0.1732 -0.0610 -0.0000
v  0.3743 0.0754 -0.0000
v  0.1882 -0.0892 -0.0000
v  0.4026 0.0345 -0.0000
v  0.4265 -0.0095 -0.0000
v  0.2005 -0.1206 -0.0000
v  0.4461 -0.0564 -0.0000
v  0.2101 -0.1551 -0.0000
v  0.4613 -0.1063 -0.0000
v  0.2170 -0.1928 -0.0000
v  0.4722 -0.1592 -0.0000
v  0.2211 -0.2338 -0.0000
v  0.4787 -0.2151 -0.0000
v  0.2224 -0.2779 -0.0000
v  0.4809 -0.2739 -0.0000
v  0.2213 -0.3192 -0.0000
v  0.4777 -0.3459 -0.0000
v  0.2179 -0.3582 -0.0000
v  0.4683 -0.4134 -0.0000
v  0.2121 -0.3946 -0.0000
v  0.4525 -0.4765 -0.0000
v  0.2041 -0.4286 -0.0000
v  0.4303 -0.5351 -0.0000
v  0.1938 -0.4601 -0.0000
v  0.4019 -0.5893 -0.0000
v  0.1811 -0.4892 -0.0000
v  0.3671 -0.6391 -0.0000
v  0.1662 -0.5158 -0.0000
v  0.3260 -0.6845 -0.0000
v  0.1471 -0.5428 -0.0000
v  0.2863 -0.7188 -0.0000
v  0.1257 -0.5656 -0.0000
v  0.2436 -0.7478 -0.0000
v  0.1021 -0.5843 -0.0000
v  0.1982 -0.7716 -0.0000
v  0.0763 -0.5988 -0.0000
v  0.1498 -0.7900 0.0000
v  0.0483 -0.6092 -0.0000
v  0.0986 -0.8032 0.0000
v  0.0181 -0.6154 -0.0000
v  0.0446 -0.8112 0.0000
v  -0.0143 -0.6175 -0.0000
v  -0.0123 -0.8138 0.0000
v  -0.0674 -0.8119 0.0000
v  -0.0628 -0.6131 -0.0000
v  -0.1194 -0.8061 0.0000
v  -0.1055 -0.6000 -0.0000
v  -0.1683 -0.7964 0.0000
v  -0.2141 -0.7828 0.0000
v  -0.1426 -0.5781 -0.0000
v  -0.2568 -0.7654 -0.0000
v  -0.2964 -0.7441 -0.0000
v  -0.1741 -0.5475 -0.0000
v  -0.3329 -0.7190 -0.0000
v  -0.3630 -0.6933 -0.0000
v  -0.3901 -0.6647 -0.0000
v  -0.1998 -0.5081 -0.0000
v  -0.4142 -0.6331 -0.0000
# 210 vertices

vn 0.6567 0.2109 0.7241
vn 0.4096 0.7084 0.5748
vn -0.7118 0.3984 0.5785
vn -0.6827 -0.2171 0.6977
vn -0.6615 -0.2769 0.6969
vn -0.6329 -0.3387 0.6963
vn 0.5713 -0.5834 0.5774
vn 0.5834 0.5713 0.5774
vn -0.5599 0.5924 0.5792
vn 0.2990 -0.3182 0.8997
vn -0.6290 -0.5139 0.5833
vn 0.7062 -0.0366 0.7071
vn 0.7073 -0.0410 0.7057
vn 0.7068 -0.0500 0.7057
vn 0.7061 -0.0598 0.7056
vn 0.7053 -0.0705 0.7054
vn 0.7042 -0.0820 0.7052
vn 0.7029 -0.0946 0.7050
vn 0.3332 0.7719 -0.5415
vn 0.4018 -0.7005 0.5898
vn 0.6512 -0.3150 -0.6904
vn 0.5593 -0.3966 0.7280
vn 0.5030 -0.5270 -0.6850
vn 0.3591 -0.5794 0.7317
vn -0.5321 0.4886 0.6915
vn 0.2329 -0.6420 0.7305
vn -0.4559 0.5615 0.6906
vn -0.3661 0.6240 0.6904
vn 0.1076 -0.6773 0.7278
vn -0.2685 0.6713 0.6909
vn -0.1701 0.7015 0.6920
vn 0.0018 -0.6917 0.7222
vn -0.0772 0.7163 0.6935
vn -0.0830 -0.6888 0.7202
vn 0.0073 0.7192 0.6947
vn -0.1640 -0.6728 0.7214
vn 0.0906 0.7144 0.6939
vn -0.2485 -0.6454 0.7223
vn 0.1794 0.6985 0.6927
vn -0.3324 -0.6059 0.7227
vn 0.2713 0.6690 0.6920
vn -0.4113 -0.5556 0.7226
vn 0.3609 0.6255 0.6918
vn -0.4814 -0.4971 0.7219
vn 0.4429 0.5699 0.6922
vn -0.5414 -0.4311 0.7219
vn 0.5133 0.5062 0.6930
vn -0.5922 -0.3583 0.7218
vn 0.5716 0.4382 0.6937
vn -0.6327 -0.2840 0.7204
vn 0.6161 0.3699 0.6954
vn 0.6511 0.3036 0.6957
vn -0.6615 -0.2133 0.7190
vn 0.6780 0.2361 0.6961
vn -0.6806 -0.1483 0.7175
vn 0.6969 0.1698 0.6968
vn -0.6921 -0.0900 0.7161
vn 0.7086 0.1064 0.6975
vn -0.6981 -0.0385 0.7150
vn 0.7142 0.0473 0.6983
vn -0.7003 0.0062 0.7139
vn 0.7159 -0.0100 0.6981
vn -0.6984 0.0479 0.7141
vn 0.7138 -0.0732 0.6965
vn -0.6931 0.0925 0.7149
vn 0.7039 -0.1449 0.6954
vn -0.6838 0.1419 0.7157
vn 0.6845 -0.2220 0.6944
vn -0.6693 0.1959 0.7167
vn 0.6540 -0.3018 0.6936
vn -0.6483 0.2541 0.7178
vn 0.6119 -0.3809 0.6932
vn -0.6197 0.3153 0.7187
vn 0.5590 -0.4550 0.6932
vn -0.5832 0.3775 0.7193
vn 0.4978 -0.5208 0.6935
vn -0.5308 0.4427 0.7226
vn 0.4322 -0.5752 0.6945
vn -0.4618 0.5121 0.7242
vn 0.3633 -0.6213 0.6942
vn -0.3779 0.5756 0.7252
vn 0.2887 -0.6593 0.6943
vn -0.2828 0.6276 0.7254
vn 0.2113 -0.6876 0.6946
vn -0.1828 0.6645 0.7246
vn 0.1346 -0.7060 0.6953
vn -0.0848 0.6855 0.7231
vn 0.0612 -0.7153 0.6961
vn 0.0162 0.6887 0.7248
vn -0.0035 -0.7160 0.6981
vn -0.0598 -0.7130 0.6986
vn 0.1385 0.6679 0.7312
vn -0.1168 -0.7068 0.6978
vn 0.2804 0.6180 0.7345
vn -0.1788 -0.6945 0.6969
vn -0.2448 -0.6750 0.6961
vn 0.4175 0.5342 0.7351
vn -0.3131 -0.6469 0.6954
vn -0.3813 -0.6097 0.6949
vn 0.5302 0.4269 0.7326
vn -0.4437 -0.5649 0.6957
vn -0.5004 -0.5156 0.6955
vn -0.5517 -0.4603 0.6956
vn 0.6089 0.3142 0.7284
vn -0.5962 -0.4005 0.6958
vn -0.7118 0.3984 -0.5785
vn 0.4097 0.7082 -0.5749
vn 0.6567 0.2109 -0.7241
vn -0.6827 -0.2171 -0.6977
vn -0.6615 -0.2769 -0.6969
vn -0.6329 -0.3387 -0.6963
vn -0.5599 0.5924 -0.5792
vn 0.5834 0.5713 -0.5774
vn 0.5713 -0.5834 -0.5774
vn 0.2990 -0.3182 -0.8997
vn -0.6290 -0.5139 -0.5833
vn 0.7062 -0.0366 -0.7071
vn 0.7073 -0.0410 -0.7057
vn 0.7068 -0.0500 -0.7057
vn 0.7062 -0.0598 -0.7055
vn 0.7053 -0.0705 -0.7054
vn 0.7043 -0.0820 -0.7052
vn 0.7029 -0.0946 -0.7050
vn 0.3332 0.7719 0.5415
vn 0.4018 -0.7005 -0.5898
vn 0.6512 -0.3150 0.6904
vn 0.5593 -0.3966 -0.7280
vn 0.5030 -0.5270 0.6850
vn 0.3591 -0.5794 -0.7317
vn -0.5321 0.4886 -0.6915
vn 0.2329 -0.6420 -0.7305
vn -0.4559 0.5615 -0.6906
vn -0.3661 0.6240 -0.6904
vn 0.1076 -0.6773 -0.7278
vn -0.2685 0.6713 -0.6909
vn -0.1701 0.7015 -0.6920
vn 0.0018 -0.6917 -0.7222
vn -0.0772 0.7163 -0.6935
vn -0.0830 -0.6888 -0.7202
vn 0.0073 0.7192 -0.6948
vn -0.1640 -0.6728 -0.7214
vn 0.0906 0.7144 -0.6939
vn -0.2485 -0.6454 -0.7223
vn 0.1794 0.6985 -0.6927
vn -0.3324 -0.6059 -0.7227
vn 0.2713 0.6690 -0.6920
vn -0.4113 -0.5556 -0.7226
vn 0.3609 0.6255 -0.6918
vn -0.4814 -0.4971 -0.7219
vn 0.4429 0.5699 -0.6922
vn -0.5414 -0.4311 -0.7219
vn 0.5133 0.5062 -0.6930
vn -0.5922 -0.3583 -0.7218
vn 0.5716 0.4382 -0.6937
vn -0.6327 -0.2840 -0.7204
vn 0.6161 0.3699 -0.6954
vn 0.6511 0.3036 -0.6957
vn -0.6615 -0.2133 -0.7190
vn 0.6780 0.2361 -0.6961
vn -0.6806 -0.1483 -0.7175
vn 0.6969 0.1698 -0.6968
vn -0.6921 -0.0900 -0.7161
vn 0.7086 0.1064 -0.6975
vn -0.6981 -0.0385 -0.7150
vn 0.7142 0.0473 -0.6983
vn -0.7003 0.0062 -0.7139
vn 0.7159 -0.0100 -0.6981
vn -0.6984 0.0479 -0.7141
vn 0.7138 -0.0732 -0.6965
vn -0.6931 0.0925 -0.7149
vn 0.7039 -0.1449 -0.6954
vn -0.6838 0.1419 -0.7157
vn 0.6845 -0.2220 -0.6944
vn -0.6693 0.1959 -0.7167
vn 0.6540 -0.3018 -0.6936
vn -0.6483 0.2541 -0.7178
vn 0.6119 -0.3809 -0.6932
vn -0.6197 0.3153 -0.7187
vn 0.5590 -0.4550 -0.6932
vn -0.5832 0.3775 -0.7193
vn 0.4978 -0.5208 -0.6935
vn -0.5308 0.4427 -0.7226
vn 0.4322 -0.5752 -0.6945
vn -0.4618 0.5121 -0.7242
vn 0.3633 -0.6213 -0.6942
vn -0.3779 0.5756 -0.7252
vn 0.2887 -0.6593 -0.6943
vn -0.2828 0.6276 -0.7254
vn 0.2113 -0.6876 -0.6946
vn -0.1828 0.6645 -0.7246
vn 0.1346 -0.7060 -0.6953
vn -0.0848 0.6855 -0.7231
vn 0.0612 -0.7153 -0.6961
vn 0.0162 0.6887 -0.7248
vn -0.0035 -0.7160 -0.6981
vn -0.0598 -0.7130 -0.6986
vn 0.1385 0.6679 -0.7312
vn -0.1168 -0.7068 -0.6978
vn 0.2804 0.6180 -0.7345
vn -0.1788 -0.6945 -0.6969
vn -0.2448 -0.6750 -0.6961
vn 0.4175 0.5342 -0.7351
vn -0.3131 -0.6469 -0.6954
vn -0.3813 -0.6097 -0.6949
vn 0.5302 0.4269 -0.7326
vn -0.4437 -0.5649 -0.6957
vn -0.5004 -0.5156 -0.6955
vn -0.5517 -0.4603 -0.6956
vn 0.6089 0.3142 -0.7284
vn -0.5962 -0.4005 -0.6958
# 210 vertex normals

o Text006
g Text006
s 1
f 1//1 2//2 3//3 4//4 
f 1//1 4//4 5//5 6//6 
f 7//7 8//8 9//9 10//10 
f 10//10 9//9 11//11 12//12 
f 13//13 12//12 11//11 14//14 
f 15//15 14//14 11//11 16//16 
f 17//17 16//16 11//11 18//18 
f 19//19 18//18 11//11 20//20 
f 19//19 20//20 21//21 22//22 
f 19//19 22//22 23//23 24//24 
f 25//25 19//19 24//24 26//26 
f 27//27 25//25 26//26 28//28 
f 28//28 26//26 29//29 30//30 
f 31//31 30//30 29//29 32//32 
f 33//33 31//31 32//32 34//34 
f 35//35 33//33 34//34 36//36 
f 37//37 35//35 36//36 38//38 
f 39//39 37//37 38//38 40//40 
f 41//41 39//39 40//40 42//42 
f 43//43 41//41 42//42 44//44 
f 45//45 43//43 44//44 46//46 
f 47//47 45//45 46//46 48//48 
f 49//49 47//47 48//48 50//50 
f 51//51 49//49 50//50 52//52 
f 52//52 50//50 53//53 54//54 
f 54//54 53//53 55//55 56//56 
f 56//56 55//55 57//57 58//58 
f 58//58 57//57 59//59 60//60 
f 60//60 59//59 61//61 62//62 
f 62//62 61//61 63//63 64//64 
f 64//64 63//63 65//65 66//66 
f 66//66 65//65 67//67 68//68 
f 68//68 67//67 69//69 70//70 
f 70//70 69//69 71//71 72//72 
f 72//72 71//71 73//73 74//74 
f 74//74 73//73 75//75 76//76 
f 76//76 75//75 77//77 78//78 
f 78//78 77//77 79//79 80//80 
f 80//80 79//79 81//81 82//82 
f 82//82 81//81 83//83 84//84 
f 84//84 83//83 85//85 86//86 
f 86//86 85//85 87//87 88//88 
f 88//88 87//87 89//89 90//90 
f 91//91 90//90 89//89 92//92 
f 93//93 91//91 92//92 94//94 
f 95//95 93//93 94//94 96//96 
f 96//96 94//94 97//97 98//98 
f 99//99 98//98 97//97 100//100 
f 101//101 99//99 100//100 102//102 
f 103//103 102//102 100//100 104//104 
f 105//105 103//103 104//104 6//6 
f 1//1 6//6 104//104 
f 106//106 107//107 108//108 109//109 
f 110//110 109//109 108//108 111//111 
f 112//112 113//113 114//114 115//115 
f 116//116 112//112 115//115 117//117 
f 116//116 117//117 118//118 119//119 
f 116//116 119//119 120//120 121//121 
f 116//116 121//121 122//122 123//123 
f 116//116 123//123 124//124 125//125 
f 126//126 125//125 124//124 127//127 
f 128//128 127//127 124//124 129//129 
f 129//129 124//124 130//130 131//131 
f 131//131 130//130 132//132 133//133 
f 134//134 131//131 133//133 135//135 
f 134//134 135//135 136//136 137//137 
f 137//137 136//136 138//138 139//139 
f 139//139 138//138 140//140 141//141 
f 141//141 140//140 142//142 143//143 
f 143//143 142//142 144//144 145//145 
f 145//145 144//144 146//146 147//147 
f 147//147 146//146 148//148 149//149 
f 149//149 148//148 150//150 151//151 
f 151//151 150//150 152//152 153//153 
f 153//153 152//152 154//154 155//155 
f 155//155 154//154 156//156 157//157 
f 158//158 155//155 157//157 159//159 
f 160//160 158//158 159//159 161//161 
f 162//162 160//160 161//161 163//163 
f 164//164 162//162 163//163 165//165 
f 166//166 164//164 165//165 167//167 
f 168//168 166//166 167//167 169//169 
f 170//170 168//168 169//169 171//171 
f 172//172 170//170 171//171 173//173 
f 174//174 172//172 173//173 175//175 
f 176//176 174//174 175//175 177//177 
f 178//178 176//176 177//177 179//179 
f 180//180 178//178 179//179 181//181 
f 182//182 180//180 181//181 183//183 
f 184//184 182//182 183//183 185//185 
f 186//186 184//184 185//185 187//187 
f 188//188 186//186 187//187 189//189 
f 190//190 188//188 189//189 191//191 
f 192//192 190//190 191//191 193//193 
f 194//194 192//192 193//193 195//195 
f 194//194 195//195 196//196 197//197 
f 197//197 196//196 198//198 199//199 
f 199//199 198//198 200//200 201//201 
f 202//202 199//199 201//201 203//203 
f 202//202 203//203 204//204 205//205 
f 205//205 204//204 206//206 207//207 
f 205//205 207//207 208//208 209//209 
f 209//209 208//208 210//210 111//111 
f 209//209 111//111 108//108 
s 2
f 2//2 1//1 108//108 107//107 
s 4
f 3//3 2//2 107//107 106//106 
s 2
f 4//4 3//3 106//106 109//109 
f 5//5 4//4 109//109 110//110 
f 6//6 5//5 110//110 111//111 
f 8//8 7//7 114//114 113//113 
s 4
f 9//9 8//8 113//113 112//112 
f 7//7 10//10 115//115 114//114 
s 2
f 11//11 9//9 112//112 116//116 
s 8
f 10//10 12//12 117//117 115//115 
f 12//12 13//13 118//118 117//117 
f 13//13 14//14 119//119 118//118 
f 14//14 15//15 120//120 119//119 
f 15//15 16//16 121//121 120//120 
f 16//16 17//17 122//122 121//121 
f 17//17 18//18 123//123 122//122 
f 18//18 19//19 124//124 123//123 
s 4
f 20//20 11//11 116//116 125//125 
s 2
f 21//21 20//20 125//125 126//126 
f 22//22 21//21 126//126 127//127 
f 23//23 22//22 127//127 128//128 
f 24//24 23//23 128//128 129//129 
f 19//19 25//25 130//130 124//124 
f 26//26 24//24 129//129 131//131 
f 25//25 27//27 132//132 130//130 
f 27//27 28//28 133//133 132//132 
f 29//29 26//26 131//131 134//134 
f 28//28 30//30 135//135 133//133 
f 30//30 31//31 136//136 135//135 
f 32//32 29//29 134//134 137//137 
f 31//31 33//33 138//138 136//136 
f 34//34 32//32 137//137 139//139 
f 33//33 35//35 140//140 138//138 
f 36//36 34//34 139//139 141//141 
f 35//35 37//37 142//142 140//140 
f 38//38 36//36 141//141 143//143 
f 37//37 39//39 144//144 142//142 
f 40//40 38//38 143//143 145//145 
f 39//39 41//41 146//146 144//144 
f 42//42 40//40 145//145 147//147 
f 41//41 43//43 148//148 146//146 
f 44//44 42//42 147//147 149//149 
f 43//43 45//45 150//150 148//148 
f 46//46 44//44 149//149 151//151 
f 45//45 47//47 152//152 150//150 
f 48//48 46//46 151//151 153//153 
f 47//47 49//49 154//154 152//152 
f 50//50 48//48 153//153 155//155 
f 49//49 51//51 156//156 154//154 
f 51//51 52//52 157//157 156//156 
f 53//53 50//50 155//155 158//158 
f 52//52 54//54 159//159 157//157 
f 55//55 53//53 158//158 160//160 
f 54//54 56//56 161//161 159//159 
f 57//57 55//55 160//160 162//162 
f 56//56 58//58 163//163 161//161 
f 59//59 57//57 162//162 164//164 
f 58//58 60//60 165//165 163//163 
f 61//61 59//59 164//164 166//166 
f 60//60 62//62 167//167 165//165 
f 63//63 61//61 166//166 168//168 
f 62//62 64//64 169//169 167//167 
f 65//65 63//63 168//168 170//170 
f 64//64 66//66 171//171 169//169 
f 67//67 65//65 170//170 172//172 
f 66//66 68//68 173//173 171//171 
f 69//69 67//67 172//172 174//174 
f 68//68 70//70 175//175 173//173 
f 71//71 69//69 174//174 176//176 
f 70//70 72//72 177//177 175//175 
f 73//73 71//71 176//176 178//178 
f 72//72 74//74 179//179 177//177 
f 75//75 73//73 178//178 180//180 
f 74//74 76//76 181//181 179//179 
f 77//77 75//75 180//180 182//182 
f 76//76 78//78 183//183 181//181 
f 79//79 77//77 182//182 184//184 
f 78//78 80//80 185//185 183//183 
f 81//81 79//79 184//184 186//186 
f 80//80 82//82 187//187 185//185 
f 83//83 81//81 186//186 188//188 
f 82//82 84//84 189//189 187//187 
f 85//85 83//83 188//188 190//190 
f 84//84 86//86 191//191 189//189 
f 87//87 85//85 190//190 192//192 
f 86//86 88//88 193//193 191//191 
f 89//89 87//87 192//192 194//194 
f 88//88 90//90 195//195 193//193 
f 90//90 91//91 196//196 195//195 
f 92//92 89//89 194//194 197//197 
f 91//91 93//93 198//198 196//196 
f 94//94 92//92 197//197 199//199 
f 93//93 95//95 200//200 198//198 
f 95//95 96//96 201//201 200//200 
f 97//97 94//94 199//199 202//202 
f 96//96 98//98 203//203 201//201 
f 98//98 99//99 204//204 203//203 
f 100//100 97//97 202//202 205//205 
f 99//99 101//101 206//206 204//204 
f 101//101 102//102 207//207 206//206 
f 102//102 103//103 208//208 207//207 
f 104//104 100//100 205//205 209//209 
f 103//103 105//105 210//210 208//208 
f 105//105 6//6 111//111 210//210 
f 1//1 104//104 209//209 108//108 
# 207 polygons - 2 triangles

