# 3ds Max Wavefront OBJ Exporter v0.97b - (c)2007 guruware
# File Created: 31.01.2019 22:35:43

#
# object Text002
#

v  -0.1011 -0.5889 0.2210
v  -0.4040 -0.5889 0.2210
v  -0.4040 -0.7852 0.2210
v  0.1396 -0.5889 0.2210
v  0.4266 -0.7852 0.2210
v  0.4266 -0.5889 0.2210
v  0.1396 0.7670 0.2210
v  -0.0676 0.7670 0.2210
v  -0.1177 0.7320 0.2210
v  -0.4266 0.5859 0.2210
v  -0.3862 0.3744 0.2210
v  -0.3410 0.3900 0.2210
v  -0.3741 0.6026 0.2210
v  -0.2973 0.4069 0.2210
v  -0.2551 0.4251 0.2210
v  -0.3220 0.6224 0.2210
v  -0.2143 0.4446 0.2210
v  -0.2703 0.6452 0.2210
v  -0.1751 0.4655 0.2210
v  -0.1374 0.4877 0.2210
v  -0.2190 0.6711 0.2210
v  -0.1011 0.5112 0.2210
v  -0.1682 0.7000 0.2210
v  -0.4040 -0.7852 0.0000
v  -0.4040 -0.5889 -0.0000
v  -0.1011 -0.5889 -0.0000
v  0.1396 -0.5889 -0.0000
v  0.4266 -0.5889 -0.0000
v  0.4266 -0.7852 -0.0000
v  -0.0676 0.7670 -0.0000
v  0.1396 0.7670 -0.0000
v  -0.1177 0.7320 -0.0000
v  -0.3410 0.3900 -0.0000
v  -0.3862 0.3744 -0.0000
v  -0.4266 0.5859 -0.0000
v  -0.3741 0.6026 -0.0000
v  -0.2973 0.4069 -0.0000
v  -0.2551 0.4251 -0.0000
v  -0.3220 0.6224 -0.0000
v  -0.2143 0.4446 -0.0000
v  -0.2703 0.6452 -0.0000
v  -0.1751 0.4655 -0.0000
v  -0.1374 0.4877 -0.0000
v  -0.2190 0.6711 -0.0000
v  -0.1011 0.5112 -0.0000
v  -0.1682 0.7000 -0.0000
# 46 vertices

vn -0.2983 0.3047 0.9045
vn -0.5713 0.5834 0.5774
vn -0.5834 -0.5713 0.5774
vn 0.3047 0.2983 0.9045
vn 0.5713 -0.5834 0.5774
vn 0.5834 0.5713 0.5774
vn -0.2218 0.7310 0.6453
vn -0.3828 0.5883 0.7123
vn -0.6931 0.4226 0.5839
vn -0.4192 -0.7064 0.5703
vn 0.2370 -0.6706 0.7029
vn -0.2237 0.6642 0.7133
vn 0.2623 -0.6612 0.7028
vn 0.2881 -0.6506 0.7026
vn -0.2591 0.6514 0.7131
vn 0.3144 -0.6385 0.7025
vn -0.2929 0.6371 0.7129
vn 0.3410 -0.6248 0.7024
vn 0.3678 -0.6096 0.7022
vn -0.3248 0.6217 0.7127
vn -0.4055 -0.7279 -0.5530
vn -0.3548 0.6053 0.7126
vn -0.5834 -0.5713 -0.5774
vn -0.5713 0.5834 -0.5774
vn -0.2983 0.3047 -0.9045
vn 0.3047 0.2983 -0.9045
vn 0.5834 0.5713 -0.5774
vn 0.5713 -0.5834 -0.5774
vn -0.2218 0.7310 -0.6453
vn -0.3828 0.5883 -0.7123
vn 0.2370 -0.6705 -0.7030
vn -0.4192 -0.7064 -0.5703
vn -0.6931 0.4226 -0.5839
vn -0.2237 0.6642 -0.7133
vn 0.2623 -0.6612 -0.7028
vn 0.2881 -0.6506 -0.7026
vn -0.2591 0.6514 -0.7131
vn 0.3144 -0.6385 -0.7025
vn -0.2929 0.6371 -0.7129
vn 0.3410 -0.6248 -0.7024
vn 0.3678 -0.6096 -0.7022
vn -0.3248 0.6217 -0.7127
vn -0.4055 -0.7279 0.5530
vn -0.3548 0.6053 -0.7126
# 44 vertex normals

o Text002
g Text002
s 1
f 1//1 2//2 3//3 4//4 
f 5//5 6//6 4//4 3//3 
f 4//4 7//6 8//7 9//8 
f 10//9 11//10 12//11 13//12 
f 13//12 12//11 14//13 15//14 
f 16//15 13//12 15//14 17//16 
f 18//17 16//15 17//16 19//18 
f 18//17 19//18 20//19 21//20 
f 21//20 20//19 22//21 23//22 
f 9//8 23//22 22//21 4//4 
f 1//1 4//4 22//21 
f 24//23 25//24 26//25 27//26 
f 27//26 28//27 29//28 24//23 
f 30//29 31//27 27//26 32//30 
f 33//31 34//32 35//33 36//34 
f 37//35 33//31 36//34 38//36 
f 38//36 36//34 39//37 40//38 
f 40//38 39//37 41//39 42//40 
f 43//41 42//40 41//39 44//42 
f 45//43 43//41 44//42 46//44 
f 45//43 46//44 32//30 27//26 
f 45//43 27//26 26//25 
s 2
f 2//2 1//1 26//25 25//24 
s 4
f 3//3 2//2 25//24 24//23 
s 2
f 6//6 5//5 29//28 28//27 
s 4
f 4//4 6//6 28//27 27//26 
s 8
f 5//5 3//3 24//23 29//28 
s 2
f 7//6 4//4 27//26 31//27 
s 4
f 8//7 7//6 31//27 30//29 
f 9//8 8//7 30//29 32//30 
s 2
f 11//10 10//9 35//33 34//32 
s 4
f 12//11 11//10 34//32 33//31 
f 10//9 13//12 36//34 35//33 
f 14//13 12//11 33//31 37//35 
f 15//14 14//13 37//35 38//36 
f 13//12 16//15 39//37 36//34 
f 17//16 15//14 38//36 40//38 
f 16//15 18//17 41//39 39//37 
f 19//18 17//16 40//38 42//40 
f 20//19 19//18 42//40 43//41 
f 18//17 21//20 44//42 41//39 
f 22//21 20//19 43//41 45//43 
f 21//20 23//22 46//44 44//42 
f 23//22 9//8 32//30 46//44 
s 8
f 1//1 22//21 45//43 26//25 
# 43 polygons - 2 triangles

