# 3ds Max Wavefront OBJ Exporter v0.97b - (c)2007 guruware
# File Created: 01.02.2019 15:04:11

#
# object Text003
#

v  0.4779 -0.7852 0.2210
v  0.4779 -0.5830 0.2210
v  -0.2155 -0.5830 0.2210
v  -0.4779 -0.7852 0.2210
v  -0.4641 0.3565 0.2210
v  -0.2116 0.3042 0.2210
v  -0.2025 0.3783 0.2210
v  -0.4538 0.4166 0.2210
v  -0.4387 0.4724 0.2210
v  -0.1861 0.4409 0.2210
v  -0.4189 0.5240 0.2210
v  -0.3942 0.5712 0.2210
v  -0.1622 0.4922 0.2210
v  -0.3648 0.6141 0.2210
v  -0.3305 0.6526 0.2210
v  -0.1309 0.5321 0.2210
v  -0.2915 0.6869 0.2210
v  -0.2553 0.7123 0.2210
v  -0.2168 0.7338 0.2210
v  -0.0922 0.5605 0.2210
v  -0.1760 0.7514 0.2210
v  -0.1327 0.7650 0.2210
v  -0.0461 0.5776 0.2210
v  -0.0871 0.7748 0.2210
v  -0.0390 0.7806 0.2210
v  0.0074 0.5833 0.2210
v  0.0113 0.7826 0.2210
v  0.0738 0.7801 0.2210
v  0.0315 0.5823 0.2210
v  0.0543 0.5793 0.2210
v  0.1321 0.7726 0.2210
v  0.0756 0.5743 0.2210
v  0.0957 0.5672 0.2210
v  0.1143 0.5582 0.2210
v  0.1861 0.7601 0.2210
v  0.1316 0.5471 0.2210
v  0.2360 0.7426 0.2210
v  0.1475 0.5340 0.2210
v  0.2817 0.7202 0.2210
v  0.1640 0.5166 0.2210
v  0.3232 0.6927 0.2210
v  0.1779 0.4972 0.2210
v  0.3605 0.6602 0.2210
v  0.3901 0.6274 0.2210
v  0.1893 0.4757 0.2210
v  0.4151 0.5916 0.2210
v  0.1982 0.4522 0.2210
v  0.4356 0.5528 0.2210
v  0.4515 0.5109 0.2210
v  0.2046 0.4266 0.2210
v  0.4629 0.4660 0.2210
v  0.2084 0.3989 0.2210
v  0.4697 0.4181 0.2210
v  0.2096 0.3692 0.2210
v  0.4720 0.3672 0.2210
v  0.2088 0.3434 0.2210
v  0.4705 0.3281 0.2210
v  0.4657 0.2896 0.2210
v  0.2063 0.3184 0.2210
v  0.4579 0.2519 0.2210
v  0.2022 0.2942 0.2210
v  0.4469 0.2148 0.2210
v  0.1964 0.2708 0.2210
v  0.4328 0.1784 0.2210
v  0.1890 0.2482 0.2210
v  0.4155 0.1427 0.2210
v  0.1799 0.2264 0.2210
v  0.3951 0.1077 0.2210
v  0.1692 0.2054 0.2210
v  0.3734 0.0758 0.2210
v  0.1531 0.1793 0.2210
v  0.3477 0.0420 0.2210
v  0.1326 0.1505 0.2210
v  0.3181 0.0063 0.2210
v  0.1076 0.1190 0.2210
v  0.2846 -0.0311 0.2210
v  0.0782 0.0849 0.2210
v  0.2471 -0.0705 0.2210
v  0.0442 0.0482 0.2210
v  0.2057 -0.1117 0.2210
v  0.0058 0.0087 0.2210
v  0.1603 -0.1547 0.2210
v  -0.0370 -0.0334 0.2210
v  0.0811 -0.2275 0.2210
v  -0.1219 -0.1180 0.2210
v  0.0104 -0.2964 0.2210
v  -0.1994 -0.2017 0.2210
v  -0.0517 -0.3615 0.2210
v  -0.1054 -0.4226 0.2210
v  -0.2697 -0.2844 0.2210
v  -0.1506 -0.4799 0.2210
v  -0.3327 -0.3662 0.2210
v  -0.1873 -0.5334 0.2210
v  -0.3884 -0.4470 0.2210
v  -0.4368 -0.5268 0.2210
v  -0.4779 -0.6057 0.2210
v  -0.2155 -0.5830 -0.0000
v  0.4779 -0.5830 -0.0000
v  0.4779 -0.7852 -0.0000
v  -0.4779 -0.7852 0.0000
v  -0.2025 0.3783 -0.0000
v  -0.2116 0.3042 -0.0000
v  -0.4641 0.3565 -0.0000
v  -0.4538 0.4166 -0.0000
v  -0.4387 0.4724 -0.0000
v  -0.1861 0.4409 -0.0000
v  -0.4189 0.5240 -0.0000
v  -0.3942 0.5712 -0.0000
v  -0.1622 0.4922 -0.0000
v  -0.3648 0.6141 -0.0000
v  -0.3305 0.6526 -0.0000
v  -0.1309 0.5321 -0.0000
v  -0.2915 0.6869 -0.0000
v  -0.2553 0.7123 -0.0000
v  -0.2168 0.7338 -0.0000
v  -0.0922 0.5605 -0.0000
v  -0.1760 0.7514 -0.0000
v  -0.1327 0.7650 -0.0000
v  -0.0461 0.5776 -0.0000
v  -0.0871 0.7748 -0.0000
v  -0.0390 0.7806 -0.0000
v  0.0074 0.5833 -0.0000
v  0.0113 0.7826 -0.0000
v  0.0738 0.7801 -0.0000
v  0.0315 0.5823 -0.0000
v  0.0543 0.5793 -0.0000
v  0.1321 0.7726 -0.0000
v  0.0756 0.5743 -0.0000
v  0.0957 0.5672 -0.0000
v  0.1143 0.5582 -0.0000
v  0.1861 0.7601 -0.0000
v  0.1316 0.5471 -0.0000
v  0.2360 0.7426 -0.0000
v  0.1475 0.5340 -0.0000
v  0.2817 0.7202 -0.0000
v  0.1640 0.5166 -0.0000
v  0.3232 0.6927 -0.0000
v  0.1779 0.4972 -0.0000
v  0.3605 0.6602 -0.0000
v  0.3901 0.6274 -0.0000
v  0.1893 0.4757 -0.0000
v  0.4151 0.5916 -0.0000
v  0.1982 0.4522 -0.0000
v  0.4356 0.5528 -0.0000
v  0.4515 0.5109 -0.0000
v  0.2046 0.4266 -0.0000
v  0.4629 0.4660 -0.0000
v  0.2084 0.3989 -0.0000
v  0.4697 0.4181 -0.0000
v  0.2096 0.3692 -0.0000
v  0.4720 0.3672 -0.0000
v  0.2088 0.3434 -0.0000
v  0.4705 0.3281 -0.0000
v  0.4657 0.2896 -0.0000
v  0.2063 0.3184 -0.0000
v  0.4579 0.2519 -0.0000
v  0.2022 0.2942 -0.0000
v  0.4469 0.2148 -0.0000
v  0.1964 0.2708 -0.0000
v  0.4328 0.1784 -0.0000
v  0.1890 0.2482 -0.0000
v  0.4155 0.1427 -0.0000
v  0.1799 0.2264 -0.0000
v  0.3951 0.1077 -0.0000
v  0.1692 0.2054 -0.0000
v  0.3734 0.0758 -0.0000
v  0.1531 0.1793 -0.0000
v  0.3477 0.0420 -0.0000
v  0.1326 0.1505 -0.0000
v  0.3181 0.0063 -0.0000
v  0.1076 0.1190 -0.0000
v  0.2846 -0.0311 -0.0000
v  0.0782 0.0849 -0.0000
v  0.2471 -0.0705 -0.0000
v  0.0442 0.0482 -0.0000
v  0.2057 -0.1117 -0.0000
v  0.0058 0.0087 -0.0000
v  0.1603 -0.1547 -0.0000
v  -0.0370 -0.0334 -0.0000
v  0.0811 -0.2275 -0.0000
v  -0.1219 -0.1180 -0.0000
v  0.0104 -0.2964 -0.0000
v  -0.1994 -0.2017 -0.0000
v  -0.0517 -0.3615 -0.0000
v  -0.1054 -0.4226 -0.0000
v  -0.2697 -0.2844 -0.0000
v  -0.1506 -0.4799 -0.0000
v  -0.3327 -0.3662 -0.0000
v  -0.1873 -0.5334 -0.0000
v  -0.3884 -0.4470 -0.0000
v  -0.4368 -0.5268 -0.0000
v  -0.4779 -0.6057 -0.0000
# 192 vertices

vn 0.5713 -0.5834 0.5774
vn 0.5834 0.5713 0.5774
vn 0.2515 0.1428 0.9573
vn -0.5834 -0.5713 0.5774
vn -0.6782 -0.4523 0.5792
vn 0.4708 -0.6707 0.5731
vn 0.6775 -0.1372 0.7226
vn -0.6990 0.1615 0.6966
vn -0.6805 0.2304 0.6956
vn 0.6426 -0.2395 0.7278
vn -0.6523 0.3033 0.6946
vn -0.6132 0.3776 0.6938
vn 0.5752 -0.3614 0.7338
vn -0.5629 0.4498 0.6934
vn -0.5029 0.5161 0.6934
vn 0.4641 -0.4886 0.7388
vn -0.4385 0.5697 0.6951
vn -0.3755 0.6124 0.6956
vn -0.3104 0.6478 0.6957
vn 0.3133 -0.5954 0.7399
vn -0.2432 0.6756 0.6960
vn -0.1761 0.6955 0.6966
vn 0.1477 -0.6605 0.7361
vn -0.1111 0.7082 0.6972
vn -0.0498 0.7144 0.6980
vn 0.0150 -0.6895 0.7241
vn 0.0079 0.7157 0.6984
vn 0.0676 0.7135 0.6973
vn -0.0697 -0.7136 -0.6971
vn -0.1328 -0.6828 0.7184
vn 0.1341 0.7053 0.6961
vn -0.2022 -0.6645 0.7194
vn -0.2841 -0.6610 -0.6945
vn -0.3455 -0.6011 0.7206
vn 0.2073 0.6885 0.6949
vn -0.4139 -0.5562 0.7207
vn 0.2854 0.6611 0.6939
vn -0.4775 -0.5018 0.7213
vn 0.3652 0.6215 0.6930
vn -0.5372 -0.4347 0.7228
vn 0.4426 0.5695 0.6926
vn -0.5912 -0.3584 0.7225
vn 0.5101 0.5085 0.6937
vn 0.5686 0.4425 0.6934
vn -0.6337 -0.2784 0.7218
vn 0.6192 0.3686 0.6934
vn -0.6641 -0.1991 0.7206
vn 0.6594 0.2896 0.6937
vn 0.6884 0.2095 0.6944
vn -0.6835 -0.1239 0.7193
vn 0.7065 0.1318 0.6953
vn -0.6940 -0.0551 0.7179
vn 0.7152 0.0592 0.6964
vn -0.6985 0.0036 0.7156
vn 0.7164 -0.0059 0.6977
vn -0.6974 0.0530 0.7147
vn 0.7131 -0.0654 0.6980
vn 0.7054 -0.1240 0.6979
vn -0.6918 0.1005 0.7151
vn 0.6927 -0.1821 0.6979
vn -0.6824 0.1498 0.7154
vn 0.6752 -0.2387 0.6980
vn -0.6691 0.2000 0.7157
vn 0.6534 -0.2925 0.6982
vn -0.6517 0.2504 0.7159
vn 0.6281 -0.3428 0.6986
vn -0.6303 0.3001 0.7160
vn 0.6007 -0.3874 0.6994
vn -0.6051 0.3483 0.7160
vn 0.5745 -0.4221 0.7013
vn -0.5789 0.3921 0.7149
vn 0.5528 -0.4486 0.7022
vn -0.5557 0.4275 0.7130
vn 0.5338 -0.4700 0.7030
vn -0.5362 0.4538 0.7117
vn 0.5170 -0.4875 0.7036
vn -0.5198 0.4739 0.7108
vn 0.5023 -0.5020 0.7041
vn -0.5059 0.4897 0.7102
vn 0.4892 -0.5142 0.7045
vn -0.4940 0.5024 0.7096
vn 0.4784 -0.5231 0.7053
vn -0.4928 0.5084 0.7062
vn 0.4784 -0.5161 0.7104
vn -0.5071 0.4990 0.7027
vn 0.4944 -0.5000 0.7111
vn -0.5275 0.4780 0.7023
vn 0.5128 -0.4798 0.7119
vn 0.5342 -0.4541 0.7131
vn -0.5491 0.4539 0.7018
vn 0.5589 -0.4206 0.7146
vn -0.5716 0.4260 0.7012
vn 0.5872 -0.3762 0.7167
vn -0.5950 0.3940 0.7006
vn -0.6186 0.3570 0.6999
vn -0.7301 0.1871 0.6572
vn 0.2515 0.1428 -0.9573
vn 0.5834 0.5713 -0.5774
vn 0.5713 -0.5834 -0.5774
vn -0.5834 -0.5713 -0.5774
vn 0.6775 -0.1372 -0.7226
vn 0.4708 -0.6707 -0.5731
vn -0.6782 -0.4523 -0.5792
vn -0.6990 0.1615 -0.6966
vn -0.6805 0.2304 -0.6956
vn 0.6426 -0.2395 -0.7278
vn -0.6523 0.3033 -0.6946
vn -0.6132 0.3776 -0.6938
vn 0.5752 -0.3614 -0.7338
vn -0.5629 0.4498 -0.6934
vn -0.5029 0.5161 -0.6934
vn 0.4641 -0.4886 -0.7388
vn -0.4385 0.5697 -0.6951
vn -0.3755 0.6124 -0.6956
vn -0.3104 0.6478 -0.6957
vn 0.3133 -0.5954 -0.7399
vn -0.2432 0.6756 -0.6960
vn -0.1761 0.6955 -0.6966
vn 0.1477 -0.6605 -0.7361
vn -0.1111 0.7082 -0.6972
vn -0.0498 0.7144 -0.6980
vn 0.0150 -0.6895 -0.7241
vn 0.0079 0.7157 -0.6984
vn 0.0676 0.7135 -0.6973
vn -0.0697 -0.7136 0.6971
vn -0.1328 -0.6828 -0.7184
vn 0.1341 0.7053 -0.6961
vn -0.2022 -0.6645 -0.7194
vn -0.2841 -0.6610 0.6945
vn -0.3455 -0.6011 -0.7206
vn 0.2073 0.6885 -0.6949
vn -0.4139 -0.5562 -0.7207
vn 0.2854 0.6611 -0.6939
vn -0.4775 -0.5018 -0.7213
vn 0.3652 0.6215 -0.6930
vn -0.5372 -0.4347 -0.7228
vn 0.4426 0.5695 -0.6926
vn -0.5912 -0.3584 -0.7225
vn 0.5101 0.5085 -0.6937
vn 0.5686 0.4425 -0.6934
vn -0.6337 -0.2784 -0.7218
vn 0.6192 0.3686 -0.6934
vn -0.6641 -0.1991 -0.7206
vn 0.6594 0.2896 -0.6937
vn 0.6884 0.2095 -0.6944
vn -0.6835 -0.1239 -0.7193
vn 0.7065 0.1318 -0.6953
vn -0.6940 -0.0551 -0.7179
vn 0.7152 0.0592 -0.6964
vn -0.6985 0.0036 -0.7156
vn 0.7164 -0.0059 -0.6977
vn -0.6974 0.0530 -0.7147
vn 0.7131 -0.0654 -0.6980
vn 0.7054 -0.1240 -0.6979
vn -0.6918 0.1005 -0.7151
vn 0.6927 -0.1821 -0.6979
vn -0.6824 0.1498 -0.7154
vn 0.6752 -0.2387 -0.6980
vn -0.6691 0.2000 -0.7157
vn 0.6534 -0.2925 -0.6982
vn -0.6517 0.2504 -0.7159
vn 0.6281 -0.3428 -0.6986
vn -0.6303 0.3001 -0.7160
vn 0.6006 -0.3874 -0.6994
vn -0.6051 0.3483 -0.7160
vn 0.5745 -0.4221 -0.7013
vn -0.5789 0.3921 -0.7149
vn 0.5528 -0.4486 -0.7022
vn -0.5557 0.4275 -0.7130
vn 0.5338 -0.4700 -0.7030
vn -0.5362 0.4538 -0.7117
vn 0.5170 -0.4875 -0.7036
vn -0.5198 0.4739 -0.7108
vn 0.5023 -0.5020 -0.7041
vn -0.5059 0.4897 -0.7102
vn 0.4892 -0.5142 -0.7045
vn -0.4940 0.5024 -0.7096
vn 0.4784 -0.5231 -0.7053
vn -0.4928 0.5084 -0.7062
vn 0.4784 -0.5161 -0.7104
vn -0.5071 0.4990 -0.7027
vn 0.4944 -0.5000 -0.7111
vn -0.5275 0.4780 -0.7023
vn 0.5128 -0.4798 -0.7119
vn 0.5342 -0.4541 -0.7131
vn -0.5491 0.4539 -0.7018
vn 0.5589 -0.4206 -0.7146
vn -0.5716 0.4260 -0.7012
vn 0.5872 -0.3762 -0.7167
vn -0.5949 0.3939 -0.7006
vn -0.6186 0.3570 -0.6999
vn -0.7301 0.1871 -0.6572
# 192 vertex normals

o Text003
g Text003
s 1
f 1//1 2//2 3//3 4//4 
f 5//5 6//6 7//7 8//8 
f 9//9 8//8 7//7 10//10 
f 11//11 9//9 10//10 12//12 
f 12//12 10//10 13//13 14//14 
f 15//15 14//14 13//13 16//16 
f 17//17 15//15 16//16 18//18 
f 19//19 18//18 16//16 20//20 
f 21//21 19//19 20//20 22//22 
f 22//22 20//20 23//23 24//24 
f 25//25 24//24 23//23 26//26 
f 27//27 25//25 26//26 28//28 
f 28//28 26//26 29//29 30//30 
f 31//31 28//28 30//30 32//32 
f 31//31 32//32 33//33 34//34 
f 35//35 31//31 34//34 36//36 
f 37//37 35//35 36//36 38//38 
f 39//39 37//37 38//38 40//40 
f 41//41 39//39 40//40 42//42 
f 43//43 41//41 42//42 44//44 
f 44//44 42//42 45//45 46//46 
f 46//46 45//45 47//47 48//48 
f 49//49 48//48 47//47 50//50 
f 51//51 49//49 50//50 52//52 
f 53//53 51//51 52//52 54//54 
f 55//55 53//53 54//54 56//56 
f 57//57 55//55 56//56 58//58 
f 58//58 56//56 59//59 60//60 
f 60//60 59//59 61//61 62//62 
f 62//62 61//61 63//63 64//64 
f 64//64 63//63 65//65 66//66 
f 66//66 65//65 67//67 68//68 
f 68//68 67//67 69//69 70//70 
f 70//70 69//69 71//71 72//72 
f 72//72 71//71 73//73 74//74 
f 74//74 73//73 75//75 76//76 
f 76//76 75//75 77//77 78//78 
f 78//78 77//77 79//79 80//80 
f 80//80 79//79 81//81 82//82 
f 82//82 81//81 83//83 84//84 
f 84//84 83//83 85//85 86//86 
f 86//86 85//85 87//87 88//88 
f 89//89 88//88 87//87 90//90 
f 91//91 89//89 90//90 92//92 
f 93//93 91//91 92//92 94//94 
f 3//3 93//93 94//94 95//95 
f 3//3 95//95 96//96 4//4 
f 97//97 98//98 99//99 100//100 
f 101//101 102//102 103//103 104//104 
f 101//101 104//104 105//105 106//106 
f 106//106 105//105 107//107 108//108 
f 109//109 106//106 108//108 110//110 
f 109//109 110//110 111//111 112//112 
f 112//112 111//111 113//113 114//114 
f 112//112 114//114 115//115 116//116 
f 116//116 115//115 117//117 118//118 
f 119//119 116//116 118//118 120//120 
f 119//119 120//120 121//121 122//122 
f 122//122 121//121 123//123 124//124 
f 125//125 122//122 124//124 126//126 
f 126//126 124//124 127//127 128//128 
f 129//129 128//128 127//127 130//130 
f 130//130 127//127 131//131 132//132 
f 132//132 131//131 133//133 134//134 
f 134//134 133//133 135//135 136//136 
f 136//136 135//135 137//137 138//138 
f 138//138 137//137 139//139 140//140 
f 141//141 138//138 140//140 142//142 
f 143//143 141//141 142//142 144//144 
f 143//143 144//144 145//145 146//146 
f 146//146 145//145 147//147 148//148 
f 148//148 147//147 149//149 150//150 
f 150//150 149//149 151//151 152//152 
f 152//152 151//151 153//153 154//154 
f 155//155 152//152 154//154 156//156 
f 157//157 155//155 156//156 158//158 
f 159//159 157//157 158//158 160//160 
f 161//161 159//159 160//160 162//162 
f 163//163 161//161 162//162 164//164 
f 165//165 163//163 164//164 166//166 
f 167//167 165//165 166//166 168//168 
f 169//169 167//167 168//168 170//170 
f 171//171 169//169 170//170 172//172 
f 173//173 171//171 172//172 174//174 
f 175//175 173//173 174//174 176//176 
f 177//177 175//175 176//176 178//178 
f 179//179 177//177 178//178 180//180 
f 181//181 179//179 180//180 182//182 
f 183//183 181//181 182//182 184//184 
f 183//183 184//184 185//185 186//186 
f 186//186 185//185 187//187 188//188 
f 188//188 187//187 189//189 190//190 
f 190//190 189//189 97//97 191//191 
f 192//192 191//191 97//97 100//100 
s 2
f 2//2 1//1 99//99 98//98 
s 4
f 3//3 2//2 98//98 97//97 
s 2
f 6//6 5//5 103//103 102//102 
s 4
f 7//7 6//6 102//102 101//101 
s 8
f 5//5 8//8 104//104 103//103 
f 8//8 9//9 105//105 104//104 
s 4
f 10//10 7//7 101//101 106//106 
s 8
f 9//9 11//11 107//107 105//105 
f 11//11 12//12 108//108 107//107 
s 4
f 13//13 10//10 106//106 109//109 
s 8
f 12//12 14//14 110//110 108//108 
f 14//14 15//15 111//111 110//110 
s 4
f 16//16 13//13 109//109 112//112 
s 8
f 15//15 17//17 113//113 111//111 
f 17//17 18//18 114//114 113//113 
f 18//18 19//19 115//115 114//114 
s 4
f 20//20 16//16 112//112 116//116 
s 8
f 19//19 21//21 117//117 115//115 
f 21//21 22//22 118//118 117//117 
s 4
f 23//23 20//20 116//116 119//119 
s 8
f 22//22 24//24 120//120 118//118 
f 24//24 25//25 121//121 120//120 
s 4
f 26//26 23//23 119//119 122//122 
s 8
f 25//25 27//27 123//123 121//121 
f 27//27 28//28 124//124 123//123 
s 4
f 29//29 26//26 122//122 125//125 
f 30//30 29//29 125//125 126//126 
s 8
f 28//28 31//31 127//127 124//124 
s 4
f 32//32 30//30 126//126 128//128 
f 33//33 32//32 128//128 129//129 
f 34//34 33//33 129//129 130//130 
s 8
f 31//31 35//35 131//131 127//127 
s 4
f 36//36 34//34 130//130 132//132 
s 8
f 35//35 37//37 133//133 131//131 
s 4
f 38//38 36//36 132//132 134//134 
s 8
f 37//37 39//39 135//135 133//133 
s 4
f 40//40 38//38 134//134 136//136 
s 8
f 39//39 41//41 137//137 135//135 
s 4
f 42//42 40//40 136//136 138//138 
s 8
f 41//41 43//43 139//139 137//137 
f 43//43 44//44 140//140 139//139 
s 4
f 45//45 42//42 138//138 141//141 
s 8
f 44//44 46//46 142//142 140//140 
s 4
f 47//47 45//45 141//141 143//143 
s 8
f 46//46 48//48 144//144 142//142 
f 48//48 49//49 145//145 144//144 
s 4
f 50//50 47//47 143//143 146//146 
s 8
f 49//49 51//51 147//147 145//145 
s 4
f 52//52 50//50 146//146 148//148 
s 8
f 51//51 53//53 149//149 147//147 
s 4
f 54//54 52//52 148//148 150//150 
s 8
f 53//53 55//55 151//151 149//149 
s 4
f 56//56 54//54 150//150 152//152 
s 8
f 55//55 57//57 153//153 151//151 
f 57//57 58//58 154//154 153//153 
s 4
f 59//59 56//56 152//152 155//155 
s 8
f 58//58 60//60 156//156 154//154 
s 4
f 61//61 59//59 155//155 157//157 
s 8
f 60//60 62//62 158//158 156//156 
s 4
f 63//63 61//61 157//157 159//159 
s 8
f 62//62 64//64 160//160 158//158 
s 4
f 65//65 63//63 159//159 161//161 
s 8
f 64//64 66//66 162//162 160//160 
s 4
f 67//67 65//65 161//161 163//163 
s 8
f 66//66 68//68 164//164 162//162 
s 4
f 69//69 67//67 163//163 165//165 
s 8
f 68//68 70//70 166//166 164//164 
s 4
f 71//71 69//69 165//165 167//167 
s 8
f 70//70 72//72 168//168 166//166 
s 4
f 73//73 71//71 167//167 169//169 
s 8
f 72//72 74//74 170//170 168//168 
s 4
f 75//75 73//73 169//169 171//171 
s 8
f 74//74 76//76 172//172 170//170 
s 4
f 77//77 75//75 171//171 173//173 
s 8
f 76//76 78//78 174//174 172//172 
s 4
f 79//79 77//77 173//173 175//175 
s 8
f 78//78 80//80 176//176 174//174 
s 4
f 81//81 79//79 175//175 177//177 
s 8
f 80//80 82//82 178//178 176//176 
s 4
f 83//83 81//81 177//177 179//179 
s 8
f 82//82 84//84 180//180 178//178 
s 4
f 85//85 83//83 179//179 181//181 
s 8
f 84//84 86//86 182//182 180//180 
s 4
f 87//87 85//85 181//181 183//183 
s 8
f 86//86 88//88 184//184 182//182 
f 88//88 89//89 185//185 184//184 
s 4
f 90//90 87//87 183//183 186//186 
s 8
f 89//89 91//91 187//187 185//185 
s 4
f 92//92 90//90 186//186 188//188 
s 8
f 91//91 93//93 189//189 187//187 
s 4
f 94//94 92//92 188//188 190//190 
s 8
f 93//93 3//3 97//97 189//189 
s 4
f 95//95 94//94 190//190 191//191 
f 96//96 95//95 191//191 192//192 
f 4//4 96//96 192//192 100//100 
s 8
f 1//1 4//4 100//100 99//99 
# 190 polygons

